<?xml version="1.0" encoding="utf-8"?>
<!-- Generator: Adobe Illustrator 21.0.0, SVG Export Plug-In . SVG Version: 6.00 Build 0)  -->
<svg version="1.1" xmlns="http://www.w3.org/2000/svg" x="0px"
     y="0px"
     viewBox="0 0 24 24" style="enable-background:new 0 0 24 24;">
    <style type="text/css">
        .st0{fill:#7C7CDA;}
    </style>
    <g class="protect">
        <path class="st0" d="M7.4,16.4c-0.2,0.2-0.5,0.2-0.7,0c-0.2-0.2-0.2-0.5,0-0.7l3-3c0.3-0.3,0.7-0.2,0.8,0.2l0.8,2.1l1.5-1
	c0.2-0.2,0.6-0.1,0.7,0.2l0.8,1.3l1.6-0.8c0.2-0.1,0.5,0,0.7,0.2c0.1,0.2,0,0.5-0.2,0.7l-2,1c-0.2,0.1-0.5,0-0.7-0.2L12.8,15l-1.6,1
	c-0.3,0.2-0.6,0.1-0.7-0.2l-0.7-1.9L7.4,16.4z M18,20V9h1v12H4V3h12v1H5v16H18z M6,18h11v1H6V18z M12,10l7-7l2,2l-7,7h-2V10z"/>
    </g>
</svg>
